<?xml version="1.0"?>
<svg xmlns="http://www.w3.org/2000/svg" xmlns:xlink="http://www.w3.org/1999/xlink" version="1.1" viewBox="0 0 192 192" width="50px" height="50px"><g fill="none" fill-rule="nonzero" stroke="none" stroke-width="1" stroke-linecap="butt" stroke-linejoin="miter" stroke-miterlimit="10" stroke-dasharray="" stroke-dashoffset="0" font-family="none" font-weight="none" font-size="none" text-anchor="none" style="mix-blend-mode: normal"><path d="M0,192v-192h192v192z" fill="none"/><g fill="#8f1838"><g id="surface1"><path d="M49.2,7.68c-1.83,0.345 -3.15,1.965 -3.12,3.84v168.96c-0.015,1.38 0.72,2.655 1.905,3.345c1.185,0.705 2.655,0.705 3.855,0.015l44.16,-25.8l44.16,25.8c1.2,0.69 2.67,0.69 3.855,-0.015c1.185,-0.69 1.92,-1.965 1.905,-3.345v-168.96c0,-2.115 -1.725,-3.84 -3.84,-3.84h-92.16c-0.12,0 -0.24,0 -0.36,0c-0.12,0 -0.24,0 -0.36,0zM53.76,15.36h84.48v158.4l-40.32,-23.52c-1.185,-0.69 -2.655,-0.69 -3.84,0l-40.32,23.52z"/></g></g></g></svg>
